<mxfile host="Electron" modified="2023-05-31T05:58:40.065Z" agent="Mozilla/5.0 (Windows NT 10.0; Win64; x64) AppleWebKit/537.36 (KHTML, like Gecko) draw.io/21.2.8 Chrome/112.0.5615.165 Electron/24.2.0 Safari/537.36" etag="SM8JhatZJGnADn9DF9uR" version="21.2.8" type="device">
  <diagram name="Seite-1" id="qJ-lkOMcjMPNH3fn7LXX">
    <mxGraphModel dx="979" dy="660" grid="1" gridSize="10" guides="1" tooltips="1" connect="1" arrows="1" fold="1" page="1" pageScale="1" pageWidth="827" pageHeight="1169" math="0" shadow="0">
      <root>
        <mxCell id="0" />
        <mxCell id="1" parent="0" />
        <mxCell id="S1d4TI62ECWiPsAL67vC-2" value="" style="swimlane;startSize=0;fillColor=#18141D;fillStyle=auto;gradientColor=none;swimlaneFillColor=default;" vertex="1" parent="1">
          <mxGeometry x="129" y="160" width="570" height="490" as="geometry">
            <mxRectangle x="129" y="160" width="50" height="40" as="alternateBounds" />
          </mxGeometry>
        </mxCell>
        <mxCell id="S1d4TI62ECWiPsAL67vC-5" value="" style="whiteSpace=wrap;html=1;aspect=fixed;labelBackgroundColor=none;" vertex="1" parent="S1d4TI62ECWiPsAL67vC-2">
          <mxGeometry x="260" y="180" width="310" height="310" as="geometry" />
        </mxCell>
        <mxCell id="S1d4TI62ECWiPsAL67vC-1" value="" style="shape=image;verticalLabelPosition=bottom;labelBackgroundColor=default;verticalAlign=top;aspect=fixed;imageAspect=0;image=https://cdn.icon-icons.com/icons2/145/PNG/256/cabinet_21466.png;" vertex="1" parent="S1d4TI62ECWiPsAL67vC-2">
          <mxGeometry x="400" y="328" width="110" height="110" as="geometry" />
        </mxCell>
        <mxCell id="S1d4TI62ECWiPsAL67vC-6" value="&lt;font style=&quot;&quot;&gt;&lt;font style=&quot;font-size: 24px;&quot;&gt;Aktenraum&lt;/font&gt;&lt;br&gt;&lt;font style=&quot;font-size: 16px;&quot;&gt;(Schema)&lt;/font&gt;&lt;/font&gt;" style="text;html=1;strokeColor=none;fillColor=none;align=center;verticalAlign=middle;whiteSpace=wrap;rounded=0;" vertex="1" parent="S1d4TI62ECWiPsAL67vC-2">
          <mxGeometry x="260" y="180" width="140" height="50" as="geometry" />
        </mxCell>
        <mxCell id="S1d4TI62ECWiPsAL67vC-7" value="" style="endArrow=none;html=1;rounded=0;" edge="1" parent="S1d4TI62ECWiPsAL67vC-2" target="S1d4TI62ECWiPsAL67vC-8">
          <mxGeometry width="50" height="50" relative="1" as="geometry">
            <mxPoint x="430" y="340" as="sourcePoint" />
            <mxPoint x="620" y="260" as="targetPoint" />
          </mxGeometry>
        </mxCell>
        <mxCell id="S1d4TI62ECWiPsAL67vC-8" value="&lt;font style=&quot;font-size: 20px;&quot;&gt;&lt;span style=&quot;&quot;&gt;Aktenschrank&lt;/span&gt;&lt;br&gt;&lt;font style=&quot;font-size: 20px;&quot;&gt;(Tabelle)&lt;/font&gt;&lt;/font&gt;" style="text;html=1;strokeColor=none;fillColor=none;align=center;verticalAlign=middle;whiteSpace=wrap;rounded=0;" vertex="1" parent="S1d4TI62ECWiPsAL67vC-2">
          <mxGeometry x="340" y="250" width="60" height="60" as="geometry" />
        </mxCell>
        <mxCell id="S1d4TI62ECWiPsAL67vC-10" value="&lt;font style=&quot;&quot;&gt;&lt;span style=&quot;font-size: 20px;&quot;&gt;Akte&lt;/span&gt;&lt;br&gt;&lt;font style=&quot;font-size: 16px;&quot;&gt;(Daten)&lt;/font&gt;&lt;/font&gt;" style="text;html=1;strokeColor=none;fillColor=none;align=center;verticalAlign=middle;whiteSpace=wrap;rounded=0;" vertex="1" parent="S1d4TI62ECWiPsAL67vC-2">
          <mxGeometry x="299.9999999999998" y="368" width="60" height="30" as="geometry" />
        </mxCell>
        <mxCell id="S1d4TI62ECWiPsAL67vC-3" value="" style="triangle;whiteSpace=wrap;html=1;rotation=-90;" vertex="1" parent="1">
          <mxGeometry x="334" y="-327" width="159" height="815" as="geometry" />
        </mxCell>
        <mxCell id="S1d4TI62ECWiPsAL67vC-4" value="Bank&lt;br&gt;&lt;font style=&quot;font-size: 16px;&quot;&gt;(Datenbank)&lt;/font&gt;" style="text;html=1;strokeColor=none;fillColor=none;align=center;verticalAlign=middle;whiteSpace=wrap;rounded=0;fontSize=24;" vertex="1" parent="1">
          <mxGeometry x="364" y="65.5" width="100" height="30" as="geometry" />
        </mxCell>
        <mxCell id="S1d4TI62ECWiPsAL67vC-9" value="" style="endArrow=none;html=1;rounded=0;" edge="1" parent="1" target="S1d4TI62ECWiPsAL67vC-10">
          <mxGeometry width="50" height="50" relative="1" as="geometry">
            <mxPoint x="570" y="550" as="sourcePoint" />
            <mxPoint x="720" y="510" as="targetPoint" />
          </mxGeometry>
        </mxCell>
      </root>
    </mxGraphModel>
  </diagram>
</mxfile>
